# xmcd CD database file
# Copyright (C) 1996 Ti Kan
#
# Track frame offsets:
#  150
#  14567
#  26707
#  40185
#  54405
#  67005
#  76922
#  88800
#  102042
#  115190
#  126657
#  139312
#  153642
#  164995
#  177480
#  188345
#  201062
#  210670
#  221592
#  233410
#  245790
#  256705
#
# Disc length: 3561 seconds
#
# Revision: 1
# Processed by: cddbd v1.4b41PL1 Copyright (c) Steve Scherf et al.
# Submitted via: CDWizzard Release:4.10
#
DISCID=400de716
DTITLE=Loretta Lynn - Loretta Lynn: Softly and Tenderly
DYEAR=1900
DGENRE=
TTITLE0=Softly and Tenderly
TTITLE1=In the Garden
TTITLE2=How Great Thou Art
TTITLE3=Just a Closer Walk with Thee
TTITLE4=If You Miss Heaven (You'll Miss It All)
TTITLE5=Harp with Golden Strings
TTITLE6=The Old Rugged Cross
TTITLE7=Put Your Hand in the Hand
TTITLE8=Peace in the Valley
TTITLE9=I Believe
TTITLE10=Where No One Stands Alone
TTITLE11=When They Ring Those Golden Bells
TTITLE12=He's Got the Whole World in His Hands
TTITLE13=A Satisfied Mind
TTITLE14=Just a Little Talk with Jesus
TTITLE15=Where I Learned to Pray
TTITLE16=Old Camp Meetin' Time
TTITLE17=Everbody Wants to Go to Heaven
TTITLE18=When I Hear My Children Pray
TTITLE19=I'd Rather Have Jesus
TTITLE20=In the Sweet Bye and Bye
TTITLE21=If I Could Hear My Mother Pray
EXTD=
EXTT0=Loretta Lynn
EXTT1=Loretta Lynn
EXTT2=Loretta Lynn
EXTT3=Loretta Lynn
EXTT4=Loretta Lynn
EXTT5=Loretta Lynn
EXTT6=Loretta Lynn
EXTT7=Loretta Lynn
EXTT8=Loretta Lynn
EXTT9=Loretta Lynn
EXTT10=Loretta Lynn
EXTT11=Loretta Lynn
EXTT12=Loretta Lynn
EXTT13=Loretta Lynn
EXTT14=Loretta Lynn
EXTT15=Loretta Lynn
EXTT16=Loretta Lynn
EXTT17=Loretta Lynn
EXTT18=Loretta Lynn
EXTT19=Loretta Lynn
EXTT20=Loretta Lynn
EXTT21=Loretta Lynn
PLAYORDER=
